<?xml version="1.0"?>
<svg xmlns:rdf="http://www.w3.org/1999/02/22-rdf-syntax-ns#" xmlns="http://www.w3.org/2000/svg" xmlns:cc="http://creativecommons.org/ns#" xmlns:dc="http://purl.org/dc/elements/1.1/" xmlns:svg="http://www.w3.org/2000/svg" id="svg2" viewBox="0 0 213.38 62.909" version="1.0">
  <g id="layer1" transform="translate(-80.976 -177.49)">
    <g id="g9477" transform="translate(26.268 135.33)">
      <path id="path2902" d="m125.27 56.083h-50.087" stroke="#000" stroke-width="2.5971px" fill="none"/>
      <path id="path2904" d="m125.27 90.402h-50.087" stroke="#000" stroke-width="2.5971px" fill="none"/>
      <path id="path2906" d="m248.4 73.617h-50.09" stroke="#000" stroke-width="2.5971px" fill="none"/>
      <path id="rect1358" stroke-linejoin="round" d="m125.5 43.483c16.68 0.128 33.38-0.407 50.03 0.68 7.18 1.168 10.19 3.123 14.45 7.112 6.89 6.695 9.38 17.106 8.57 26.305-0.47 7.14-3.91 14.999-10.06 19.719-3.61 2.741-7.74 4.441-13.11 5.381-10.04 1.33-20.2 0.75-30.3 0.94-6.53 0-13.05 0.01-19.58 0.15v-60.287z" stroke="#0000a9" stroke-width="2.5971" fill="none"/>
      <path id="text2916" d="m61.647 50.529l-2.78 7.538h5.57l-2.79-7.538m-1.157-2.019h2.324l5.772 15.147h-2.13l-1.38-3.886h-6.828l-1.379 3.886h-2.161l5.782-15.147"/>
      <path id="text2920" d="m59.098 90.742v5.55h3.287c1.102 0 1.917-0.227 2.445-0.68 0.534-0.46 0.801-1.16 0.801-2.1 0-0.947-0.267-1.644-0.801-2.09-0.528-0.453-1.343-0.68-2.445-0.68h-3.287m0-6.229v4.565h3.033c1.001 0.001 1.745-0.185 2.232-0.557 0.494-0.379 0.741-0.954 0.741-1.725 0-0.764-0.247-1.336-0.741-1.715-0.487-0.378-1.231-0.568-2.232-0.568h-3.033m-2.05-1.684h5.235c1.563 0 2.766 0.325 3.612 0.974 0.845 0.649 1.268 1.573 1.268 2.77 0 0.926-0.216 1.663-0.649 2.211s-1.069 0.89-1.908 1.025c1.008 0.216 1.789 0.67 2.344 1.359 0.561 0.683 0.842 1.539 0.842 2.567 0 1.353-0.46 2.398-1.38 3.135s-2.228 1.106-3.926 1.106h-5.438v-15.147"/>
      <path id="text2924" d="m255.32 65.902h2.2l4.2 6.229 4.17-6.229h2.2l-5.36 7.933v7.213h-2.06v-7.213l-5.35-7.933"/>
    </g>
  </g>
  <metadata>
    <rdf:RDF>
      <cc:Work>
        <dc:format>image/svg+xml</dc:format>
        <dc:type rdf:resource="http://purl.org/dc/dcmitype/StillImage"/>
        <cc:license rdf:resource="http://creativecommons.org/licenses/publicdomain/"/>
        <dc:publisher>
          <cc:Agent rdf:about="http://openclipart.org/">
            <dc:title>Openclipart</dc:title>
          </cc:Agent>
        </dc:publisher>
        <dc:title>logic functions - digital electronics</dc:title>
        <dc:date>2008-02-06T04:29:40</dc:date>
        <dc:description>anyone who know these symbols better and can add each one as a separate file properly named - please do so.</dc:description>
        <dc:source>http://openclipart.org/detail/13104/logic-functions---digital-electronics-by-anonymous-13104</dc:source>
        <dc:creator>
          <cc:Agent>
            <dc:title>Anonymous</dc:title>
          </cc:Agent>
        </dc:creator>
        <dc:subject>
          <rdf:Bag>
            <rdf:li>clip art</rdf:li>
            <rdf:li>clipart</rdf:li>
            <rdf:li>computer</rdf:li>
            <rdf:li>digital</rdf:li>
            <rdf:li>electronic</rdf:li>
            <rdf:li>function</rdf:li>
            <rdf:li>image</rdf:li>
            <rdf:li>logic</rdf:li>
            <rdf:li>logic gate</rdf:li>
            <rdf:li>media</rdf:li>
            <rdf:li>png</rdf:li>
            <rdf:li>public domain</rdf:li>
            <rdf:li>svg</rdf:li>
            <rdf:li>symbol</rdf:li>
          </rdf:Bag>
        </dc:subject>
      </cc:Work>
      <cc:License rdf:about="http://creativecommons.org/licenses/publicdomain/">
        <cc:permits rdf:resource="http://creativecommons.org/ns#Reproduction"/>
        <cc:permits rdf:resource="http://creativecommons.org/ns#Distribution"/>
        <cc:permits rdf:resource="http://creativecommons.org/ns#DerivativeWorks"/>
      </cc:License>
    </rdf:RDF>
  </metadata>
</svg>
